<?xml version="1.0" encoding="utf-8"?>
<!-- Generator: Adobe Illustrator 17.1.0, SVG Export Plug-In . SVG Version: 6.00 Build 0)  -->
<!DOCTYPE svg PUBLIC "-//W3C//DTD SVG 1.1//EN" "http://www.w3.org/Graphics/SVG/1.1/DTD/svg11.dtd">
<svg version="1.1" xmlns="http://www.w3.org/2000/svg" xmlns:xlink="http://www.w3.org/1999/xlink" x="0px" y="0px"
	 viewBox="0 0 80 39.968" enable-background="new 0 0 80 39.968" xml:space="preserve">
<g id="Grid_Desktop">
</g>
<g id="Grid_Smartphone">
</g>
<g id="Notes">
	<g id="Note__x23_10">
		<g id="Note__x23_">
		</g>
	</g>
</g>
<g id="Content">
	<g>
		<g>
			<path fill="#212721" d="M56.958,0.387h-14.09c-0.004,0-0.008,0-0.013,0c-0.005,0-0.01,0-0.015,0
				c-2.593,0-4.708,1.917-4.706,4.512l-0.015,28.116c0,0.006,0.016-0.152,0.016-0.146c0.01,2.545,2.149,4.518,4.694,4.518
				c0.004,0,14.129,0,14.129,0c-2.597,0-4.958-1.875-4.958-4.472V4.702C52,2.105,54.361,0.387,56.958,0.387z"/>
			<g>
				<path fill="#212721" d="M75,28.387v4.528c0,2.597-1.339,4.472-3.936,4.472H80v-9H75z"/>
				<path fill="#212721" d="M71.064,0.387C73.661,0.387,75,2.105,75,4.702v4.685h5v-9H71.064z"/>
			</g>
		</g>
		<path fill="#212721" d="M31.249,21.058c-0.408,0-0.77-0.206-0.982-0.522L19.341,0H0.532v2.367l0,0
			c5.475-0.005,6.196,0.549,7.827,3.636c1.229,2.327,18.034,33.966,18.034,33.966l5.187-17.123l0,0l0.785-2.593
			C32.21,20.72,31.769,21.058,31.249,21.058z"/>
		<g>
			<path fill="#212721" d="M5,28.213c0,2.597-2,4.702-5,4.702v4.471h10.963L5,26.831V28.213z"/>
		</g>
	</g>
</g>
</svg>
